<svg xmlns="http://www.w3.org/2000/svg" width="1000" height="250.07899" viewBox="0 0 1000 250.079"><path d="M0 1052.283 182.353 871.4c51.854-50.768 84.276-69.118 185.294-69.118H823.53l-94.853 93.382h-338.97c-79.515 0-98.702 10.92-135.294 46.324l-113.236 110.294Z" style="fill:#ff1e00;fill-opacity:1;stroke:none" transform="translate(0 -802.283)"/><path d="m166.912 1052.283 102.775-102.941c26.983-26.595 45.093-38.236 109.109-38.236H713.97l-87.5 87.353H389.706c-36.014 0-47.359 9.58-55.882 17.886l-36.03 35.938zM593.676 1052.283l249.412-250H1000l-250 250z" style="fill:#ff1e00;fill-opacity:1;stroke:none" transform="translate(0 -802.283)"/><g style="font-style:normal;font-weight:400;font-size:40px;font-family:Sans;letter-spacing:0;word-spacing:0;fill:#ff1e00;fill-opacity:1;stroke:none"><path d="M533.542 629.923V605.43h-8.84v-4.14h22.695v4.14h-9.027v24.492zM551.044 629.923V601.29h7.331l6.357 17.385c.625 1.888 1.08 3.3 1.367 4.238a197.62 197.62 0 0 1 1.524-4.59l5.963-17.033h7.198v28.633h-4.44v-22.284l-8.268 22.284h-4.258c-2.76-5.896-4.733-14.5-7.494-21.75v21.75z" style="font-variant:normal;font-stretch:normal;font-family:Arial;fill:#ff1e00;fill-opacity:1;stroke:none" transform="matrix(1.08403 0 0 1.08403 245.356 -432.778)"/></g></svg>